<mxfile host="app.diagrams.net" modified="2023-12-17T10:01:46.957Z" agent="Mozilla/5.0 (Windows NT 10.0; Win64; x64) AppleWebKit/537.36 (KHTML, like Gecko) Chrome/120.0.0.0 Safari/537.36" etag="NpquLOKy3k1JHmk5HOrx" version="22.1.11" type="github">
  <diagram name="Halaman-1" id="Amh2mmN1JDySEoaFm9QU">
    <mxGraphModel dx="1323" dy="1912" grid="1" gridSize="10" guides="1" tooltips="1" connect="1" arrows="1" fold="1" page="1" pageScale="1" pageWidth="827" pageHeight="1169" math="0" shadow="0">
      <root>
        <mxCell id="0" />
        <mxCell id="1" parent="0" />
        <mxCell id="bi3WUS4kzeiAN3RM-r-X-8" style="edgeStyle=orthogonalEdgeStyle;rounded=0;orthogonalLoop=1;jettySize=auto;html=1;exitX=1;exitY=0.5;exitDx=0;exitDy=0;entryX=0;entryY=0.5;entryDx=0;entryDy=0;" edge="1" parent="1" source="bi3WUS4kzeiAN3RM-r-X-1" target="bi3WUS4kzeiAN3RM-r-X-2">
          <mxGeometry relative="1" as="geometry" />
        </mxCell>
        <mxCell id="bi3WUS4kzeiAN3RM-r-X-1" value="Start" style="ellipse;whiteSpace=wrap;html=1;" vertex="1" parent="1">
          <mxGeometry x="110" y="40" width="120" height="80" as="geometry" />
        </mxCell>
        <mxCell id="bi3WUS4kzeiAN3RM-r-X-9" style="edgeStyle=orthogonalEdgeStyle;rounded=0;orthogonalLoop=1;jettySize=auto;html=1;exitX=1;exitY=0.5;exitDx=0;exitDy=0;entryX=0;entryY=0.5;entryDx=0;entryDy=0;" edge="1" parent="1" source="bi3WUS4kzeiAN3RM-r-X-2" target="bi3WUS4kzeiAN3RM-r-X-3">
          <mxGeometry relative="1" as="geometry" />
        </mxCell>
        <mxCell id="bi3WUS4kzeiAN3RM-r-X-2" value="Inisialisasi komponen dan program serta menghubungkan ke Blynk" style="rounded=0;whiteSpace=wrap;html=1;" vertex="1" parent="1">
          <mxGeometry x="264" y="50" width="150" height="60" as="geometry" />
        </mxCell>
        <mxCell id="bi3WUS4kzeiAN3RM-r-X-10" style="edgeStyle=orthogonalEdgeStyle;rounded=0;orthogonalLoop=1;jettySize=auto;html=1;exitX=1;exitY=0.5;exitDx=0;exitDy=0;entryX=0;entryY=0.5;entryDx=0;entryDy=0;" edge="1" parent="1" source="bi3WUS4kzeiAN3RM-r-X-3" target="bi3WUS4kzeiAN3RM-r-X-4">
          <mxGeometry relative="1" as="geometry" />
        </mxCell>
        <mxCell id="bi3WUS4kzeiAN3RM-r-X-3" value="Mendeteksi cahaya berdasarkan lingkungan sekitar" style="rounded=0;whiteSpace=wrap;html=1;" vertex="1" parent="1">
          <mxGeometry x="450" y="50" width="120" height="60" as="geometry" />
        </mxCell>
        <mxCell id="bi3WUS4kzeiAN3RM-r-X-11" style="edgeStyle=orthogonalEdgeStyle;rounded=0;orthogonalLoop=1;jettySize=auto;html=1;exitX=0.5;exitY=1;exitDx=0;exitDy=0;entryX=0.5;entryY=0;entryDx=0;entryDy=0;" edge="1" parent="1" source="bi3WUS4kzeiAN3RM-r-X-4" target="bi3WUS4kzeiAN3RM-r-X-5">
          <mxGeometry relative="1" as="geometry" />
        </mxCell>
        <mxCell id="bi3WUS4kzeiAN3RM-r-X-4" value="Kirim data ke ESP32 untuk diolah" style="rounded=0;whiteSpace=wrap;html=1;" vertex="1" parent="1">
          <mxGeometry x="620" y="50" width="120" height="60" as="geometry" />
        </mxCell>
        <mxCell id="bi3WUS4kzeiAN3RM-r-X-12" style="edgeStyle=orthogonalEdgeStyle;rounded=0;orthogonalLoop=1;jettySize=auto;html=1;exitX=0;exitY=0.5;exitDx=0;exitDy=0;entryX=1;entryY=0.5;entryDx=0;entryDy=0;" edge="1" parent="1" source="bi3WUS4kzeiAN3RM-r-X-5" target="bi3WUS4kzeiAN3RM-r-X-6">
          <mxGeometry relative="1" as="geometry" />
        </mxCell>
        <mxCell id="bi3WUS4kzeiAN3RM-r-X-5" value="ESP32 mengirim hasil olah data ke Blynk" style="rounded=0;whiteSpace=wrap;html=1;" vertex="1" parent="1">
          <mxGeometry x="620" y="150" width="120" height="60" as="geometry" />
        </mxCell>
        <mxCell id="bi3WUS4kzeiAN3RM-r-X-13" style="edgeStyle=orthogonalEdgeStyle;rounded=0;orthogonalLoop=1;jettySize=auto;html=1;exitX=0;exitY=0.5;exitDx=0;exitDy=0;entryX=1;entryY=0.5;entryDx=0;entryDy=0;" edge="1" parent="1" source="bi3WUS4kzeiAN3RM-r-X-6" target="bi3WUS4kzeiAN3RM-r-X-7">
          <mxGeometry relative="1" as="geometry" />
        </mxCell>
        <mxCell id="bi3WUS4kzeiAN3RM-r-X-6" value="Blynk menampilkan data aplikasi android dan web" style="rounded=0;whiteSpace=wrap;html=1;" vertex="1" parent="1">
          <mxGeometry x="450" y="150" width="120" height="60" as="geometry" />
        </mxCell>
        <mxCell id="bi3WUS4kzeiAN3RM-r-X-7" value="END" style="ellipse;whiteSpace=wrap;html=1;" vertex="1" parent="1">
          <mxGeometry x="279" y="140" width="120" height="80" as="geometry" />
        </mxCell>
        <mxCell id="bi3WUS4kzeiAN3RM-r-X-14" value="&lt;font style=&quot;font-size: 36px;&quot;&gt;Fungsi Monitoring Intensitas Cahaya&lt;/font&gt;" style="text;html=1;strokeColor=none;fillColor=none;align=center;verticalAlign=middle;whiteSpace=wrap;rounded=0;" vertex="1" parent="1">
          <mxGeometry x="279" y="-80" width="341" height="100" as="geometry" />
        </mxCell>
        <mxCell id="bi3WUS4kzeiAN3RM-r-X-16" value="&lt;font style=&quot;font-size: 36px;&quot;&gt;Fungsi Sistem Pencahayaan Otomatis Berbasis IoT&lt;/font&gt;" style="text;html=1;strokeColor=none;fillColor=none;align=center;verticalAlign=middle;whiteSpace=wrap;rounded=0;" vertex="1" parent="1">
          <mxGeometry x="209" y="240" width="481" height="100" as="geometry" />
        </mxCell>
        <mxCell id="bi3WUS4kzeiAN3RM-r-X-18" style="edgeStyle=orthogonalEdgeStyle;rounded=0;orthogonalLoop=1;jettySize=auto;html=1;exitX=1;exitY=0.5;exitDx=0;exitDy=0;entryX=0;entryY=0.5;entryDx=0;entryDy=0;" edge="1" parent="1" source="bi3WUS4kzeiAN3RM-r-X-19" target="bi3WUS4kzeiAN3RM-r-X-21">
          <mxGeometry relative="1" as="geometry" />
        </mxCell>
        <mxCell id="bi3WUS4kzeiAN3RM-r-X-19" value="Start" style="ellipse;whiteSpace=wrap;html=1;" vertex="1" parent="1">
          <mxGeometry x="99" y="340" width="120" height="80" as="geometry" />
        </mxCell>
        <mxCell id="bi3WUS4kzeiAN3RM-r-X-20" style="edgeStyle=orthogonalEdgeStyle;rounded=0;orthogonalLoop=1;jettySize=auto;html=1;exitX=1;exitY=0.5;exitDx=0;exitDy=0;entryX=0;entryY=0.5;entryDx=0;entryDy=0;" edge="1" parent="1" source="bi3WUS4kzeiAN3RM-r-X-21">
          <mxGeometry relative="1" as="geometry">
            <mxPoint x="439" y="380" as="targetPoint" />
          </mxGeometry>
        </mxCell>
        <mxCell id="bi3WUS4kzeiAN3RM-r-X-21" value="Inisialisasi komponen dan program serta menghubungkan ke Blynk" style="rounded=0;whiteSpace=wrap;html=1;" vertex="1" parent="1">
          <mxGeometry x="253" y="350" width="150" height="60" as="geometry" />
        </mxCell>
        <mxCell id="bi3WUS4kzeiAN3RM-r-X-22" style="edgeStyle=orthogonalEdgeStyle;rounded=0;orthogonalLoop=1;jettySize=auto;html=1;exitX=1;exitY=0.5;exitDx=0;exitDy=0;entryX=0;entryY=0.5;entryDx=0;entryDy=0;" edge="1" parent="1">
          <mxGeometry relative="1" as="geometry">
            <mxPoint x="560" y="379.5" as="sourcePoint" />
            <mxPoint x="610" y="379.5" as="targetPoint" />
          </mxGeometry>
        </mxCell>
        <mxCell id="bi3WUS4kzeiAN3RM-r-X-30" value="END" style="ellipse;whiteSpace=wrap;html=1;" vertex="1" parent="1">
          <mxGeometry x="530" y="720" width="120" height="80" as="geometry" />
        </mxCell>
        <mxCell id="bi3WUS4kzeiAN3RM-r-X-32" value="Blynk memeriksa kondisi pemicu otomatisasi pencahayaan" style="rounded=0;whiteSpace=wrap;html=1;" vertex="1" parent="1">
          <mxGeometry x="440" y="350" width="120" height="60" as="geometry" />
        </mxCell>
        <mxCell id="bi3WUS4kzeiAN3RM-r-X-34" style="edgeStyle=orthogonalEdgeStyle;rounded=0;orthogonalLoop=1;jettySize=auto;html=1;exitX=0.5;exitY=1;exitDx=0;exitDy=0;entryX=0.5;entryY=1;entryDx=0;entryDy=0;" edge="1" parent="1" source="bi3WUS4kzeiAN3RM-r-X-33" target="bi3WUS4kzeiAN3RM-r-X-32">
          <mxGeometry relative="1" as="geometry" />
        </mxCell>
        <mxCell id="bi3WUS4kzeiAN3RM-r-X-36" style="edgeStyle=orthogonalEdgeStyle;rounded=0;orthogonalLoop=1;jettySize=auto;html=1;exitX=1;exitY=0.5;exitDx=0;exitDy=0;entryX=1;entryY=0.5;entryDx=0;entryDy=0;" edge="1" parent="1" source="bi3WUS4kzeiAN3RM-r-X-33" target="bi3WUS4kzeiAN3RM-r-X-35">
          <mxGeometry relative="1" as="geometry" />
        </mxCell>
        <mxCell id="bi3WUS4kzeiAN3RM-r-X-33" value="Pemicu&lt;br&gt;otomatisasi&lt;br&gt;sesuai dengan&lt;br&gt;keadaan?" style="rhombus;whiteSpace=wrap;html=1;" vertex="1" parent="1">
          <mxGeometry x="610" y="317.5" width="125" height="125" as="geometry" />
        </mxCell>
        <mxCell id="bi3WUS4kzeiAN3RM-r-X-38" style="edgeStyle=orthogonalEdgeStyle;rounded=0;orthogonalLoop=1;jettySize=auto;html=1;exitX=0;exitY=0.5;exitDx=0;exitDy=0;entryX=1;entryY=0.5;entryDx=0;entryDy=0;" edge="1" parent="1" source="bi3WUS4kzeiAN3RM-r-X-35" target="bi3WUS4kzeiAN3RM-r-X-37">
          <mxGeometry relative="1" as="geometry" />
        </mxCell>
        <mxCell id="bi3WUS4kzeiAN3RM-r-X-35" value="Kirim sinyal ke ESP32 untuk eksekusi perintah" style="rounded=0;whiteSpace=wrap;html=1;" vertex="1" parent="1">
          <mxGeometry x="440" y="490" width="120" height="60" as="geometry" />
        </mxCell>
        <mxCell id="bi3WUS4kzeiAN3RM-r-X-37" value="END" style="ellipse;whiteSpace=wrap;html=1;" vertex="1" parent="1">
          <mxGeometry x="264" y="480" width="120" height="80" as="geometry" />
        </mxCell>
      </root>
    </mxGraphModel>
  </diagram>
</mxfile>
